<svg xmlns="http://www.w3.org/2000/svg" viewBox="0 0 658.15 658.15"><defs><style>.cls-1,.cls-2{fill:#e94d30;}.cls-2{stroke:#fff;stroke-miterlimit:10;stroke-width:16px;}.cls-3{fill:#fff;}</style></defs><g id="Ebene_2" data-name="Ebene 2"><g id="Ebene_1-2" data-name="Ebene 1"><rect class="cls-1" width="658.15" height="658.15" rx="28.35"/><rect class="cls-2" x="186.3" y="226.22" width="287.21" height="261.1" rx="8.5"/><rect class="cls-3" x="239.56" y="266.39" width="180.7" height="180.7" rx="12"/><rect class="cls-1" x="368.46" y="341.99" width="15.03" height="32.44" rx="7.52"/><rect class="cls-1" x="337.28" y="341.99" width="15.03" height="32.44" rx="7.52"/><rect class="cls-1" x="306.1" y="341.99" width="15.03" height="32.44" rx="7.52"/><rect class="cls-1" x="274.92" y="341.99" width="15.03" height="32.44" rx="7.52"/><rect class="cls-1" x="368.46" y="296.63" width="15.03" height="32.44" rx="7.52"/><rect class="cls-1" x="337.28" y="296.63" width="15.03" height="32.44" rx="7.52"/><rect class="cls-1" x="306.1" y="296.63" width="15.03" height="32.44" rx="7.52"/><rect class="cls-1" x="274.92" y="296.63" width="15.03" height="32.44" rx="7.52"/><path class="cls-2" d="M475.12,504.05a8.46,8.46,0,0,0-6-2.49H189a8.49,8.49,0,0,0-6,2.49L128.27,558.8a8.49,8.49,0,0,0-2.49,6v50.88a8.49,8.49,0,0,0,8.5,8.5h19a8.5,8.5,0,0,0,8.51-8.5v-27.3a8.49,8.49,0,0,1,8.5-8.5H487.87a8.5,8.5,0,0,1,8.5,8.5v27.3a8.5,8.5,0,0,0,8.5,8.5h19a8.5,8.5,0,0,0,8.5-8.5V564.81a8.53,8.53,0,0,0-2.49-6Z"/><path class="cls-2" d="M329.91,211.93H470a8.5,8.5,0,0,0,6-2.49l24.93-24.93a8.5,8.5,0,0,0-6-14.51h-330a8.5,8.5,0,0,0-6,14.51l24.92,24.93a8.54,8.54,0,0,0,6,2.49Z"/><path class="cls-2" d="M368.63,144.46l-14-108.79a8.51,8.51,0,0,0-8.44-7.42H313.58a8.5,8.5,0,0,0-8.43,7.42l-14,108.79a8.51,8.51,0,0,0,8.44,9.59H360.2A8.49,8.49,0,0,0,368.63,144.46Z"/></g></g></svg>